<?xml version="1.0" encoding="utf-8"?>
<svg version="1.1" xmlns:xlink="http://www.w3.org/1999/xlink" width="780px" height="280px" xmlns="http://www.w3.org/2000/svg">
  <g transform="matrix(1 0 0 1 -120 -230 )">
    <path d="M 120 230  L 900 230  L 900 510  L 120 510  L 120 230  " fill-rule="nonzero" fill="#cccccc" stroke="none" />
    <path d="M 140 250  L 880 250  L 880 490  L 140 490  L 140 250  " fill-rule="nonzero" fill="#ffffff" stroke="none" />
    <path d="M 546.6 314  C 534.84 314  525.6 304.76  525.6 293  C 525.6 281.24  534.84 272  546.6 272  C 558.36 272  567.6 281.24  567.6 293  C 567.6 304.76  558.36 314  546.6 314  " fill-rule="nonzero" fill="#cccccc" stroke="none" />
    <path d="M 147 483  L 147 358.7  L 328.5 302.2  L 582.6 434.323076923077  L 727.8 336.1  L 873 434.323076923077  L 873 483  L 147 483  " fill-rule="nonzero" fill="#169bd5" stroke="none" />
  </g>
</svg>