<?xml version="1.0" encoding="utf-8"?>
<svg version="1.1" xmlns:xlink="http://www.w3.org/1999/xlink" width="500px" height="260px" xmlns="http://www.w3.org/2000/svg">
  <g transform="matrix(1 0 0 1 -260 -240 )">
    <path d="M 260 240  L 760 240  L 760 500  L 260 500  L 260 240  " fill-rule="nonzero" fill="#cccccc" stroke="none" />
    <path d="M 278 258  L 742 258  L 742 482  L 278 482  L 278 258  " fill-rule="nonzero" fill="#ffffff" stroke="none" />
    <path d="M 539.5 318  C 528.58 318  520 309.42  520 298.5  C 520 287.58  528.58 279  539.5 279  C 550.42 279  559 287.58  559 298.5  C 559 309.42  550.42 318  539.5 318  " fill-rule="nonzero" fill="#cccccc" stroke="none" />
    <path d="M 285 476  L 285 359.95  L 397.75 307.2  L 555.6 410.168  L 645.8 338.85  L 736 410.168  L 736 476  L 285 476  " fill-rule="nonzero" fill="#169bd5" stroke="none" />
  </g>
</svg>