<?xml version="1.0" encoding="utf-8"?>
<svg version="1.1" xmlns:xlink="http://www.w3.org/1999/xlink" width="12px" height="12px" viewBox="378 1059  12 12" xmlns="http://www.w3.org/2000/svg">
  <path d="M 384 1059  C 387.36 1059  390 1061.64  390 1065  C 390 1068.36  387.36 1071  384 1071  C 380.64 1071  378 1068.36  378 1065  C 378 1061.64  380.64 1059  384 1059  Z " fill-rule="nonzero" fill="#ffffff" stroke="none" fill-opacity="0" />
  <path d="M 384 1059.5  C 387.08 1059.5  389.5 1061.92  389.5 1065  C 389.5 1068.08  387.08 1070.5  384 1070.5  C 380.92 1070.5  378.5 1068.08  378.5 1065  C 378.5 1061.92  380.92 1059.5  384 1059.5  Z " stroke-width="1" stroke="#aaaaaa" fill="none" />
  <path d="M 384 1068  C 382.32 1068  381 1066.68  381 1065  C 381 1063.32  382.32 1062  384 1062  C 385.68 1062  387 1063.32  387 1065  C 387 1066.68  385.68 1068  384 1068  " fill-rule="nonzero" fill="#aaaaaa" stroke="none" />
</svg>