<?xml version="1.0" encoding="utf-8"?>
<svg version="1.1" xmlns:xlink="http://www.w3.org/1999/xlink" width="12px" height="12px" viewBox="378 1019  12 12" xmlns="http://www.w3.org/2000/svg">
  <path d="M 384 1019  C 387.36 1019  390 1021.64  390 1025  C 390 1028.36  387.36 1031  384 1031  C 380.64 1031  378 1028.36  378 1025  C 378 1021.64  380.64 1019  384 1019  Z " fill-rule="nonzero" fill="#ffffff" stroke="none" fill-opacity="0" />
  <path d="M 384 1019.5  C 387.08 1019.5  389.5 1021.92  389.5 1025  C 389.5 1028.08  387.08 1030.5  384 1030.5  C 380.92 1030.5  378.5 1028.08  378.5 1025  C 378.5 1021.92  380.92 1019.5  384 1019.5  Z " stroke-width="1" stroke="#aaaaaa" fill="none" />
  <path d="M 384 1028  C 382.32 1028  381 1026.68  381 1025  C 381 1023.32  382.32 1022  384 1022  C 385.68 1022  387 1023.32  387 1025  C 387 1026.68  385.68 1028  384 1028  " fill-rule="nonzero" fill="#aaaaaa" stroke="none" />
</svg>