<?xml version="1.0" encoding="utf-8"?>
<svg version="1.1" xmlns:xlink="http://www.w3.org/1999/xlink" width="12px" height="12px" viewBox="138 1019  12 12" xmlns="http://www.w3.org/2000/svg">
  <path d="M 144 1019  C 147.36 1019  150 1021.64  150 1025  C 150 1028.36  147.36 1031  144 1031  C 140.64 1031  138 1028.36  138 1025  C 138 1021.64  140.64 1019  144 1019  Z " fill-rule="nonzero" fill="#ffffff" stroke="none" fill-opacity="0" />
  <path d="M 144 1019.5  C 147.08 1019.5  149.5 1021.92  149.5 1025  C 149.5 1028.08  147.08 1030.5  144 1030.5  C 140.92 1030.5  138.5 1028.08  138.5 1025  C 138.5 1021.92  140.92 1019.5  144 1019.5  Z " stroke-width="1" stroke="#aaaaaa" fill="none" />
  <path d="M 144 1028  C 142.32 1028  141 1026.68  141 1025  C 141 1023.32  142.32 1022  144 1022  C 145.68 1022  147 1023.32  147 1025  C 147 1026.68  145.68 1028  144 1028  " fill-rule="nonzero" fill="#aaaaaa" stroke="none" />
</svg>