<?xml version="1.0" encoding="utf-8"?>
<svg version="1.1" xmlns:xlink="http://www.w3.org/1999/xlink" width="12px" height="12px" viewBox="258 1059  12 12" xmlns="http://www.w3.org/2000/svg">
  <path d="M 264 1059  C 267.36 1059  270 1061.64  270 1065  C 270 1068.36  267.36 1071  264 1071  C 260.64 1071  258 1068.36  258 1065  C 258 1061.64  260.64 1059  264 1059  Z " fill-rule="nonzero" fill="#ffffff" stroke="none" fill-opacity="0" />
  <path d="M 264 1059.5  C 267.08 1059.5  269.5 1061.92  269.5 1065  C 269.5 1068.08  267.08 1070.5  264 1070.5  C 260.92 1070.5  258.5 1068.08  258.5 1065  C 258.5 1061.92  260.92 1059.5  264 1059.5  Z " stroke-width="1" stroke="#aaaaaa" fill="none" />
  <path d="M 264 1068  C 262.32 1068  261 1066.68  261 1065  C 261 1063.32  262.32 1062  264 1062  C 265.68 1062  267 1063.32  267 1065  C 267 1066.68  265.68 1068  264 1068  " fill-rule="nonzero" fill="#aaaaaa" stroke="none" />
</svg>