<?xml version="1.0" encoding="utf-8"?>
<svg version="1.1" xmlns:xlink="http://www.w3.org/1999/xlink" width="12px" height="12px" viewBox="478 809  12 12" xmlns="http://www.w3.org/2000/svg">
  <path d="M 484 809  C 487.36 809  490 811.64  490 815  C 490 818.36  487.36 821  484 821  C 480.64 821  478 818.36  478 815  C 478 811.64  480.64 809  484 809  Z " fill-rule="nonzero" fill="#ffffff" stroke="none" fill-opacity="0" />
  <path d="M 484 809.5  C 487.08 809.5  489.5 811.92  489.5 815  C 489.5 818.08  487.08 820.5  484 820.5  C 480.92 820.5  478.5 818.08  478.5 815  C 478.5 811.92  480.92 809.5  484 809.5  Z " stroke-width="1" stroke="#aaaaaa" fill="none" />
  <path d="M 484 818  C 482.32 818  481 816.68  481 815  C 481 813.32  482.32 812  484 812  C 485.68 812  487 813.32  487 815  C 487 816.68  485.68 818  484 818  " fill-rule="nonzero" fill="#aaaaaa" stroke="none" />
</svg>