<?xml version="1.0" encoding="utf-8"?>
<svg version="1.1" xmlns:xlink="http://www.w3.org/1999/xlink" width="12px" height="12px" viewBox="581 850  12 12" xmlns="http://www.w3.org/2000/svg">
  <path d="M 587 850  C 590.36 850  593 852.64  593 856  C 593 859.36  590.36 862  587 862  C 583.64 862  581 859.36  581 856  C 581 852.64  583.64 850  587 850  Z " fill-rule="nonzero" fill="#ffffff" stroke="none" fill-opacity="0" />
  <path d="M 587 850.5  C 590.08 850.5  592.5 852.92  592.5 856  C 592.5 859.08  590.08 861.5  587 861.5  C 583.92 861.5  581.5 859.08  581.5 856  C 581.5 852.92  583.92 850.5  587 850.5  Z " stroke-width="1" stroke="#aaaaaa" fill="none" />
  <path d="M 587 859  C 585.32 859  584 857.68  584 856  C 584 854.32  585.32 853  587 853  C 588.68 853  590 854.32  590 856  C 590 857.68  588.68 859  587 859  " fill-rule="nonzero" fill="#aaaaaa" stroke="none" />
</svg>