<?xml version="1.0" encoding="utf-8"?>
<svg version="1.1" xmlns:xlink="http://www.w3.org/1999/xlink" width="12px" height="12px" viewBox="258 1019  12 12" xmlns="http://www.w3.org/2000/svg">
  <path d="M 264 1019  C 267.36 1019  270 1021.64  270 1025  C 270 1028.36  267.36 1031  264 1031  C 260.64 1031  258 1028.36  258 1025  C 258 1021.64  260.64 1019  264 1019  Z " fill-rule="nonzero" fill="#ffffff" stroke="none" fill-opacity="0" />
  <path d="M 264 1019.5  C 267.08 1019.5  269.5 1021.92  269.5 1025  C 269.5 1028.08  267.08 1030.5  264 1030.5  C 260.92 1030.5  258.5 1028.08  258.5 1025  C 258.5 1021.92  260.92 1019.5  264 1019.5  Z " stroke-width="1" stroke="#aaaaaa" fill="none" />
  <path d="M 264 1028  C 262.32 1028  261 1026.68  261 1025  C 261 1023.32  262.32 1022  264 1022  C 265.68 1022  267 1023.32  267 1025  C 267 1026.68  265.68 1028  264 1028  " fill-rule="nonzero" fill="#aaaaaa" stroke="none" />
</svg>