<?xml version="1.0" encoding="utf-8"?>
<svg version="1.1" xmlns:xlink="http://www.w3.org/1999/xlink" width="12px" height="12px" viewBox="0 2  12 12" xmlns="http://www.w3.org/2000/svg">
  <path d="M 6 2  C 9.36 2  12 4.64  12 8  C 12 11.36  9.36 14  6 14  C 2.64 14  0 11.36  0 8  C 0 4.64  2.64 2  6 2  Z " fill-rule="nonzero" fill="#ffffff" stroke="none" fill-opacity="0" />
  <path d="M 6 2.5  C 9.08 2.5  11.5 4.92  11.5 8  C 11.5 11.08  9.08 13.5  6 13.5  C 2.92 13.5  0.5 11.08  0.5 8  C 0.5 4.92  2.92 2.5  6 2.5  Z " stroke-width="1" stroke="#aaaaaa" fill="none" />
  <path d="M 6 11  C 4.32 11  3 9.68  3 8  C 3 6.32  4.32 5  6 5  C 7.68 5  9 6.32  9 8  C 9 9.68  7.68 11  6 11  " fill-rule="nonzero" fill="#aaaaaa" stroke="none" />
</svg>