<?xml version="1.0" encoding="utf-8"?>
<svg version="1.1" xmlns:xlink="http://www.w3.org/1999/xlink" width="14px" height="14px" xmlns="http://www.w3.org/2000/svg">
  <g transform="matrix(1 0 0 1 -340 -8 )">
    <path d="M 347 8  C 350.92 8  354 11.08  354 15  C 354 18.92  350.92 22  347 22  C 343.08 22  340 18.92  340 15  C 340 11.08  343.08 8  347 8  Z " fill-rule="nonzero" fill="#ffffff" stroke="none" fill-opacity="0" />
    <path d="M 347 8.5  C 350.64 8.5  353.5 11.36  353.5 15  C 353.5 18.64  350.64 21.5  347 21.5  C 343.36 21.5  340.5 18.64  340.5 15  C 340.5 11.36  343.36 8.5  347 8.5  Z " stroke-width="1" stroke="#d7d7d7" fill="none" />
  </g>
</svg>