<?xml version="1.0" encoding="utf-8"?>
<svg version="1.1" xmlns:xlink="http://www.w3.org/1999/xlink" width="12px" height="12px" viewBox="130 1589  12 12" xmlns="http://www.w3.org/2000/svg">
  <path d="M 136 1589  C 139.36 1589  142 1591.64  142 1595  C 142 1598.36  139.36 1601  136 1601  C 132.64 1601  130 1598.36  130 1595  C 130 1591.64  132.64 1589  136 1589  Z " fill-rule="nonzero" fill="#ffffff" stroke="none" fill-opacity="0" />
  <path d="M 136 1589.5  C 139.08 1589.5  141.5 1591.92  141.5 1595  C 141.5 1598.08  139.08 1600.5  136 1600.5  C 132.92 1600.5  130.5 1598.08  130.5 1595  C 130.5 1591.92  132.92 1589.5  136 1589.5  Z " stroke-width="1" stroke="#aaaaaa" fill="none" />
  <path d="M 136 1598  C 134.32 1598  133 1596.68  133 1595  C 133 1593.32  134.32 1592  136 1592  C 137.68 1592  139 1593.32  139 1595  C 139 1596.68  137.68 1598  136 1598  " fill-rule="nonzero" fill="#aaaaaa" stroke="none" />
</svg>