<?xml version="1.0" encoding="utf-8"?>
<svg version="1.1" xmlns:xlink="http://www.w3.org/1999/xlink" width="12px" height="12px" viewBox="130 1648  12 12" xmlns="http://www.w3.org/2000/svg">
  <path d="M 136 1648  C 139.36 1648  142 1650.64  142 1654  C 142 1657.36  139.36 1660  136 1660  C 132.64 1660  130 1657.36  130 1654  C 130 1650.64  132.64 1648  136 1648  Z " fill-rule="nonzero" fill="#ffffff" stroke="none" fill-opacity="0" />
  <path d="M 136 1648.5  C 139.08 1648.5  141.5 1650.92  141.5 1654  C 141.5 1657.08  139.08 1659.5  136 1659.5  C 132.92 1659.5  130.5 1657.08  130.5 1654  C 130.5 1650.92  132.92 1648.5  136 1648.5  Z " stroke-width="1" stroke="#aaaaaa" fill="none" />
  <path d="M 136 1657  C 134.32 1657  133 1655.68  133 1654  C 133 1652.32  134.32 1651  136 1651  C 137.68 1651  139 1652.32  139 1654  C 139 1655.68  137.68 1657  136 1657  " fill-rule="nonzero" fill="#aaaaaa" stroke="none" />
</svg>