<?xml version="1.0" encoding="utf-8"?>
<svg version="1.1" xmlns:xlink="http://www.w3.org/1999/xlink" width="12px" height="12px" viewBox="138 1588  12 12" xmlns="http://www.w3.org/2000/svg">
  <path d="M 144 1588  C 147.36 1588  150 1590.64  150 1594  C 150 1597.36  147.36 1600  144 1600  C 140.64 1600  138 1597.36  138 1594  C 138 1590.64  140.64 1588  144 1588  Z " fill-rule="nonzero" fill="#ffffff" stroke="none" fill-opacity="0" />
  <path d="M 144 1588.5  C 147.08 1588.5  149.5 1590.92  149.5 1594  C 149.5 1597.08  147.08 1599.5  144 1599.5  C 140.92 1599.5  138.5 1597.08  138.5 1594  C 138.5 1590.92  140.92 1588.5  144 1588.5  Z " stroke-width="1" stroke="#aaaaaa" fill="none" />
  <path d="M 144 1597  C 142.32 1597  141 1595.68  141 1594  C 141 1592.32  142.32 1591  144 1591  C 145.68 1591  147 1592.32  147 1594  C 147 1595.68  145.68 1597  144 1597  " fill-rule="nonzero" fill="#aaaaaa" stroke="none" />
</svg>