<?xml version="1.0" encoding="utf-8"?>
<svg version="1.1" xmlns:xlink="http://www.w3.org/1999/xlink" width="12px" height="12px" viewBox="378 1588  12 12" xmlns="http://www.w3.org/2000/svg">
  <path d="M 384 1588  C 387.36 1588  390 1590.64  390 1594  C 390 1597.36  387.36 1600  384 1600  C 380.64 1600  378 1597.36  378 1594  C 378 1590.64  380.64 1588  384 1588  Z " fill-rule="nonzero" fill="#ffffff" stroke="none" fill-opacity="0" />
  <path d="M 384 1588.5  C 387.08 1588.5  389.5 1590.92  389.5 1594  C 389.5 1597.08  387.08 1599.5  384 1599.5  C 380.92 1599.5  378.5 1597.08  378.5 1594  C 378.5 1590.92  380.92 1588.5  384 1588.5  Z " stroke-width="1" stroke="#aaaaaa" fill="none" />
  <path d="M 384 1597  C 382.32 1597  381 1595.68  381 1594  C 381 1592.32  382.32 1591  384 1591  C 385.68 1591  387 1592.32  387 1594  C 387 1595.68  385.68 1597  384 1597  " fill-rule="nonzero" fill="#aaaaaa" stroke="none" />
</svg>