<?xml version="1.0" encoding="utf-8"?>
<svg version="1.1" xmlns:xlink="http://www.w3.org/1999/xlink" width="12px" height="12px" viewBox="230 1648  12 12" xmlns="http://www.w3.org/2000/svg">
  <path d="M 236 1648  C 239.36 1648  242 1650.64  242 1654  C 242 1657.36  239.36 1660  236 1660  C 232.64 1660  230 1657.36  230 1654  C 230 1650.64  232.64 1648  236 1648  Z " fill-rule="nonzero" fill="#ffffff" stroke="none" fill-opacity="0" />
  <path d="M 236 1648.5  C 239.08 1648.5  241.5 1650.92  241.5 1654  C 241.5 1657.08  239.08 1659.5  236 1659.5  C 232.92 1659.5  230.5 1657.08  230.5 1654  C 230.5 1650.92  232.92 1648.5  236 1648.5  Z " stroke-width="1" stroke="#aaaaaa" fill="none" />
  <path d="M 236 1657  C 234.32 1657  233 1655.68  233 1654  C 233 1652.32  234.32 1651  236 1651  C 237.68 1651  239 1652.32  239 1654  C 239 1655.68  237.68 1657  236 1657  " fill-rule="nonzero" fill="#aaaaaa" stroke="none" />
</svg>