<?xml version="1.0" encoding="utf-8"?>
<svg version="1.1" xmlns:xlink="http://www.w3.org/1999/xlink" width="12px" height="12px" viewBox="220 359  12 12" xmlns="http://www.w3.org/2000/svg">
  <path d="M 226 359  C 229.36 359  232 361.64  232 365  C 232 368.36  229.36 371  226 371  C 222.64 371  220 368.36  220 365  C 220 361.64  222.64 359  226 359  Z " fill-rule="nonzero" fill="#ffffff" stroke="none" fill-opacity="0" />
  <path d="M 226 359.5  C 229.08 359.5  231.5 361.92  231.5 365  C 231.5 368.08  229.08 370.5  226 370.5  C 222.92 370.5  220.5 368.08  220.5 365  C 220.5 361.92  222.92 359.5  226 359.5  Z " stroke-width="1" stroke="#aaaaaa" fill="none" />
  <path d="M 226 368  C 224.32 368  223 366.68  223 365  C 223 363.32  224.32 362  226 362  C 227.68 362  229 363.32  229 365  C 229 366.68  227.68 368  226 368  " fill-rule="nonzero" fill="#aaaaaa" stroke="none" />
</svg>