<?xml version="1.0" encoding="utf-8"?>
<svg version="1.1" xmlns:xlink="http://www.w3.org/1999/xlink" width="12px" height="12px" viewBox="260 81  12 12" xmlns="http://www.w3.org/2000/svg">
  <path d="M 266 81  C 269.36 81  272 83.64  272 87  C 272 90.36  269.36 93  266 93  C 262.64 93  260 90.36  260 87  C 260 83.64  262.64 81  266 81  Z " fill-rule="nonzero" fill="#ffffff" stroke="none" fill-opacity="0" />
  <path d="M 266 81.5  C 269.08 81.5  271.5 83.92  271.5 87  C 271.5 90.08  269.08 92.5  266 92.5  C 262.92 92.5  260.5 90.08  260.5 87  C 260.5 83.92  262.92 81.5  266 81.5  Z " stroke-width="1" stroke="#aaaaaa" fill="none" />
  <path d="M 266 90  C 264.32 90  263 88.68  263 87  C 263 85.32  264.32 84  266 84  C 267.68 84  269 85.32  269 87  C 269 88.68  267.68 90  266 90  " fill-rule="nonzero" fill="#aaaaaa" stroke="none" />
</svg>