<?xml version="1.0" encoding="utf-8"?>
<svg version="1.1" xmlns:xlink="http://www.w3.org/1999/xlink" width="12px" height="12px" viewBox="160 81  12 12" xmlns="http://www.w3.org/2000/svg">
  <path d="M 166 81  C 169.36 81  172 83.64  172 87  C 172 90.36  169.36 93  166 93  C 162.64 93  160 90.36  160 87  C 160 83.64  162.64 81  166 81  Z " fill-rule="nonzero" fill="#ffffff" stroke="none" fill-opacity="0" />
  <path d="M 166 81.5  C 169.08 81.5  171.5 83.92  171.5 87  C 171.5 90.08  169.08 92.5  166 92.5  C 162.92 92.5  160.5 90.08  160.5 87  C 160.5 83.92  162.92 81.5  166 81.5  Z " stroke-width="1" stroke="#aaaaaa" fill="none" />
  <path d="M 166 90  C 164.32 90  163 88.68  163 87  C 163 85.32  164.32 84  166 84  C 167.68 84  169 85.32  169 87  C 169 88.68  167.68 90  166 90  " fill-rule="nonzero" fill="#aaaaaa" stroke="none" />
</svg>