<?xml version="1.0" encoding="utf-8"?>
<svg version="1.1" xmlns:xlink="http://www.w3.org/1999/xlink" width="16px" height="16px" xmlns="http://www.w3.org/2000/svg">
  <g transform="matrix(1 0 0 1 -930 -13 )">
    <path d="M 930 13  L 946 13  L 946 29  L 930 29  L 930 13  " fill-rule="nonzero" fill="#cccccc" stroke="none" />
    <path d="M 931 14  L 945 14  L 945 28  L 931 28  L 931 14  " fill-rule="nonzero" fill="#ffffff" stroke="none" />
    <path d="M 939.52 17.8  C 938.848 17.8  938.32 17.272  938.32 16.6  C 938.32 15.928  938.848 15.4  939.52 15.4  C 940.192 15.4  940.72 15.928  940.72 16.6  C 940.72 17.272  940.192 17.8  939.52 17.8  " fill-rule="nonzero" fill="#cccccc" stroke="none" />
    <path d="M 932 28  L 932 20.85  L 935.25 17.6  L 939.8 20.2  L 942.4 19.55  L 945 20.2  L 945 28  L 932 28  " fill-rule="nonzero" fill="#169bd5" stroke="none" />
  </g>
</svg>