<?xml version="1.0" encoding="utf-8"?>
<svg version="1.1" xmlns:xlink="http://www.w3.org/1999/xlink" width="12px" height="12px" viewBox="200 380  12 12" xmlns="http://www.w3.org/2000/svg">
  <path d="M 206 380  C 209.36 380  212 382.64  212 386  C 212 389.36  209.36 392  206 392  C 202.64 392  200 389.36  200 386  C 200 382.64  202.64 380  206 380  Z " fill-rule="nonzero" fill="#ffffff" stroke="none" fill-opacity="0" />
  <path d="M 206 380.5  C 209.08 380.5  211.5 382.92  211.5 386  C 211.5 389.08  209.08 391.5  206 391.5  C 202.92 391.5  200.5 389.08  200.5 386  C 200.5 382.92  202.92 380.5  206 380.5  Z " stroke-width="1" stroke="#aaaaaa" fill="none" />
  <path d="M 206 389  C 204.32 389  203 387.68  203 386  C 203 384.32  204.32 383  206 383  C 207.68 383  209 384.32  209 386  C 209 387.68  207.68 389  206 389  " fill-rule="nonzero" fill="#aaaaaa" stroke="none" />
</svg>