<?xml version="1.0" encoding="utf-8"?>
<svg version="1.1" xmlns:xlink="http://www.w3.org/1999/xlink" width="12px" height="12px" viewBox="378 1599  12 12" xmlns="http://www.w3.org/2000/svg">
  <path d="M 384 1599  C 387.36 1599  390 1601.64  390 1605  C 390 1608.36  387.36 1611  384 1611  C 380.64 1611  378 1608.36  378 1605  C 378 1601.64  380.64 1599  384 1599  Z " fill-rule="nonzero" fill="#ffffff" stroke="none" fill-opacity="0" />
  <path d="M 384 1599.5  C 387.08 1599.5  389.5 1601.92  389.5 1605  C 389.5 1608.08  387.08 1610.5  384 1610.5  C 380.92 1610.5  378.5 1608.08  378.5 1605  C 378.5 1601.92  380.92 1599.5  384 1599.5  Z " stroke-width="1" stroke="#aaaaaa" fill="none" />
  <path d="M 384 1608  C 382.32 1608  381 1606.68  381 1605  C 381 1603.32  382.32 1602  384 1602  C 385.68 1602  387 1603.32  387 1605  C 387 1606.68  385.68 1608  384 1608  " fill-rule="nonzero" fill="#aaaaaa" stroke="none" />
</svg>