<?xml version="1.0" encoding="utf-8"?>
<svg version="1.1" xmlns:xlink="http://www.w3.org/1999/xlink" width="12px" height="12px" viewBox="230 1659  12 12" xmlns="http://www.w3.org/2000/svg">
  <path d="M 236 1659  C 239.36 1659  242 1661.64  242 1665  C 242 1668.36  239.36 1671  236 1671  C 232.64 1671  230 1668.36  230 1665  C 230 1661.64  232.64 1659  236 1659  Z " fill-rule="nonzero" fill="#ffffff" stroke="none" fill-opacity="0" />
  <path d="M 236 1659.5  C 239.08 1659.5  241.5 1661.92  241.5 1665  C 241.5 1668.08  239.08 1670.5  236 1670.5  C 232.92 1670.5  230.5 1668.08  230.5 1665  C 230.5 1661.92  232.92 1659.5  236 1659.5  Z " stroke-width="1" stroke="#aaaaaa" fill="none" />
  <path d="M 236 1668  C 234.32 1668  233 1666.68  233 1665  C 233 1663.32  234.32 1662  236 1662  C 237.68 1662  239 1663.32  239 1665  C 239 1666.68  237.68 1668  236 1668  " fill-rule="nonzero" fill="#aaaaaa" stroke="none" />
</svg>