<?xml version="1.0" encoding="utf-8"?>
<svg version="1.1" xmlns:xlink="http://www.w3.org/1999/xlink" width="12px" height="12px" viewBox="258 1599  12 12" xmlns="http://www.w3.org/2000/svg">
  <path d="M 264 1599  C 267.36 1599  270 1601.64  270 1605  C 270 1608.36  267.36 1611  264 1611  C 260.64 1611  258 1608.36  258 1605  C 258 1601.64  260.64 1599  264 1599  Z " fill-rule="nonzero" fill="#ffffff" stroke="none" fill-opacity="0" />
  <path d="M 264 1599.5  C 267.08 1599.5  269.5 1601.92  269.5 1605  C 269.5 1608.08  267.08 1610.5  264 1610.5  C 260.92 1610.5  258.5 1608.08  258.5 1605  C 258.5 1601.92  260.92 1599.5  264 1599.5  Z " stroke-width="1" stroke="#aaaaaa" fill="none" />
  <path d="M 264 1608  C 262.32 1608  261 1606.68  261 1605  C 261 1603.32  262.32 1602  264 1602  C 265.68 1602  267 1603.32  267 1605  C 267 1606.68  265.68 1608  264 1608  " fill-rule="nonzero" fill="#aaaaaa" stroke="none" />
</svg>