<?xml version="1.0" encoding="utf-8"?>
<svg version="1.1" xmlns:xlink="http://www.w3.org/1999/xlink" width="12px" height="12px" viewBox="138 1599  12 12" xmlns="http://www.w3.org/2000/svg">
  <path d="M 144 1599  C 147.36 1599  150 1601.64  150 1605  C 150 1608.36  147.36 1611  144 1611  C 140.64 1611  138 1608.36  138 1605  C 138 1601.64  140.64 1599  144 1599  Z " fill-rule="nonzero" fill="#ffffff" stroke="none" fill-opacity="0" />
  <path d="M 144 1599.5  C 147.08 1599.5  149.5 1601.92  149.5 1605  C 149.5 1608.08  147.08 1610.5  144 1610.5  C 140.92 1610.5  138.5 1608.08  138.5 1605  C 138.5 1601.92  140.92 1599.5  144 1599.5  Z " stroke-width="1" stroke="#aaaaaa" fill="none" />
  <path d="M 144 1608  C 142.32 1608  141 1606.68  141 1605  C 141 1603.32  142.32 1602  144 1602  C 145.68 1602  147 1603.32  147 1605  C 147 1606.68  145.68 1608  144 1608  " fill-rule="nonzero" fill="#aaaaaa" stroke="none" />
</svg>