<?xml version="1.0" encoding="utf-8"?>
<svg version="1.1" xmlns:xlink="http://www.w3.org/1999/xlink" width="12px" height="12px" viewBox="920 279  12 12" xmlns="http://www.w3.org/2000/svg">
  <path d="M 926 279  C 929.36 279  932 281.64  932 285  C 932 288.36  929.36 291  926 291  C 922.64 291  920 288.36  920 285  C 920 281.64  922.64 279  926 279  Z " fill-rule="nonzero" fill="#f0f0f0" stroke="none" />
  <path d="M 926 279.5  C 929.08 279.5  931.5 281.92  931.5 285  C 931.5 288.08  929.08 290.5  926 290.5  C 922.92 290.5  920.5 288.08  920.5 285  C 920.5 281.92  922.92 279.5  926 279.5  Z " stroke-width="1" stroke="#aaaaaa" fill="none" />
  <path d="M 926 288  C 924.32 288  923 286.68  923 285  C 923 283.32  924.32 282  926 282  C 927.68 282  929 283.32  929 285  C 929 286.68  927.68 288  926 288  " fill-rule="nonzero" fill="#aaaaaa" stroke="none" />
</svg>