<?xml version="1.0" encoding="utf-8"?>
<svg version="1.1" xmlns:xlink="http://www.w3.org/1999/xlink" width="12px" height="12px" viewBox="820 279  12 12" xmlns="http://www.w3.org/2000/svg">
  <path d="M 826 279  C 829.36 279  832 281.64  832 285  C 832 288.36  829.36 291  826 291  C 822.64 291  820 288.36  820 285  C 820 281.64  822.64 279  826 279  Z " fill-rule="nonzero" fill="#f0f0f0" stroke="none" />
  <path d="M 826 279.5  C 829.08 279.5  831.5 281.92  831.5 285  C 831.5 288.08  829.08 290.5  826 290.5  C 822.92 290.5  820.5 288.08  820.5 285  C 820.5 281.92  822.92 279.5  826 279.5  Z " stroke-width="1" stroke="#aaaaaa" fill="none" />
  <path d="M 826 288  C 824.32 288  823 286.68  823 285  C 823 283.32  824.32 282  826 282  C 827.68 282  829 283.32  829 285  C 829 286.68  827.68 288  826 288  " fill-rule="nonzero" fill="#aaaaaa" stroke="none" />
</svg>