<?xml version="1.0" encoding="utf-8"?>
<svg version="1.1" xmlns:xlink="http://www.w3.org/1999/xlink" width="12px" height="12px" viewBox="875 15  12 12" xmlns="http://www.w3.org/2000/svg">
  <path d="M 881 15  C 884.36 15  887 17.64  887 21  C 887 24.36  884.36 27  881 27  C 877.64 27  875 24.36  875 21  C 875 17.64  877.64 15  881 15  Z " fill-rule="nonzero" fill="#ffffff" stroke="none" fill-opacity="0" />
  <path d="M 881 15.5  C 884.08 15.5  886.5 17.92  886.5 21  C 886.5 24.08  884.08 26.5  881 26.5  C 877.92 26.5  875.5 24.08  875.5 21  C 875.5 17.92  877.92 15.5  881 15.5  Z " stroke-width="1" stroke="#aaaaaa" fill="none" />
  <path d="M 881 24  C 879.32 24  878 22.68  878 21  C 878 19.32  879.32 18  881 18  C 882.68 18  884 19.32  884 21  C 884 22.68  882.68 24  881 24  " fill-rule="nonzero" fill="#aaaaaa" stroke="none" />
</svg>