<?xml version="1.0" encoding="utf-8"?>
<svg version="1.1" xmlns:xlink="http://www.w3.org/1999/xlink" width="12px" height="12px" viewBox="150 407  12 12" xmlns="http://www.w3.org/2000/svg">
  <path d="M 156 407  C 159.36 407  162 409.64  162 413  C 162 416.36  159.36 419  156 419  C 152.64 419  150 416.36  150 413  C 150 409.64  152.64 407  156 407  Z " fill-rule="nonzero" fill="#ffffff" stroke="none" fill-opacity="0" />
  <path d="M 156 407.5  C 159.08 407.5  161.5 409.92  161.5 413  C 161.5 416.08  159.08 418.5  156 418.5  C 152.92 418.5  150.5 416.08  150.5 413  C 150.5 409.92  152.92 407.5  156 407.5  Z " stroke-width="1" stroke="#aaaaaa" fill="none" />
  <path d="M 156 416  C 154.32 416  153 414.68  153 413  C 153 411.32  154.32 410  156 410  C 157.68 410  159 411.32  159 413  C 159 414.68  157.68 416  156 416  " fill-rule="nonzero" fill="#aaaaaa" stroke="none" />
</svg>