<?xml version="1.0" encoding="utf-8"?>
<svg version="1.1" xmlns:xlink="http://www.w3.org/1999/xlink" width="12px" height="12px" viewBox="815 15  12 12" xmlns="http://www.w3.org/2000/svg">
  <path d="M 821 15  C 824.36 15  827 17.64  827 21  C 827 24.36  824.36 27  821 27  C 817.64 27  815 24.36  815 21  C 815 17.64  817.64 15  821 15  Z " fill-rule="nonzero" fill="#ffffff" stroke="none" fill-opacity="0" />
  <path d="M 821 15.5  C 824.08 15.5  826.5 17.92  826.5 21  C 826.5 24.08  824.08 26.5  821 26.5  C 817.92 26.5  815.5 24.08  815.5 21  C 815.5 17.92  817.92 15.5  821 15.5  Z " stroke-width="1" stroke="#aaaaaa" fill="none" />
  <path d="M 821 24  C 819.32 24  818 22.68  818 21  C 818 19.32  819.32 18  821 18  C 822.68 18  824 19.32  824 21  C 824 22.68  822.68 24  821 24  " fill-rule="nonzero" fill="#aaaaaa" stroke="none" />
</svg>