<?xml version="1.0" encoding="utf-8"?>
<svg version="1.1" xmlns:xlink="http://www.w3.org/1999/xlink" width="12px" height="12px" viewBox="176 99  12 12" xmlns="http://www.w3.org/2000/svg">
  <path d="M 182 99  C 185.36 99  188 101.64  188 105  C 188 108.36  185.36 111  182 111  C 178.64 111  176 108.36  176 105  C 176 101.64  178.64 99  182 99  Z " fill-rule="nonzero" fill="#ffffff" stroke="none" fill-opacity="0" />
  <path d="M 182 99.5  C 185.08 99.5  187.5 101.92  187.5 105  C 187.5 108.08  185.08 110.5  182 110.5  C 178.92 110.5  176.5 108.08  176.5 105  C 176.5 101.92  178.92 99.5  182 99.5  Z " stroke-width="1" stroke="#aaaaaa" fill="none" />
  <path d="M 182 108  C 180.32 108  179 106.68  179 105  C 179 103.32  180.32 102  182 102  C 183.68 102  185 103.32  185 105  C 185 106.68  183.68 108  182 108  " fill-rule="nonzero" fill="#aaaaaa" stroke="none" />
</svg>