<?xml version="1.0" encoding="utf-8"?>
<svg version="1.1" xmlns:xlink="http://www.w3.org/1999/xlink" width="12px" height="12px" viewBox="236 99  12 12" xmlns="http://www.w3.org/2000/svg">
  <path d="M 242 99  C 245.36 99  248 101.64  248 105  C 248 108.36  245.36 111  242 111  C 238.64 111  236 108.36  236 105  C 236 101.64  238.64 99  242 99  Z " fill-rule="nonzero" fill="#ffffff" stroke="none" fill-opacity="0" />
  <path d="M 242 99.5  C 245.08 99.5  247.5 101.92  247.5 105  C 247.5 108.08  245.08 110.5  242 110.5  C 238.92 110.5  236.5 108.08  236.5 105  C 236.5 101.92  238.92 99.5  242 99.5  Z " stroke-width="1" stroke="#aaaaaa" fill="none" />
  <path d="M 242 108  C 240.32 108  239 106.68  239 105  C 239 103.32  240.32 102  242 102  C 243.68 102  245 103.32  245 105  C 245 106.68  243.68 108  242 108  " fill-rule="nonzero" fill="#aaaaaa" stroke="none" />
</svg>