<?xml version="1.0" encoding="utf-8"?>
<svg version="1.1" xmlns:xlink="http://www.w3.org/1999/xlink" width="12px" height="12px" viewBox="920 329  12 12" xmlns="http://www.w3.org/2000/svg">
  <path d="M 926 329  C 929.36 329  932 331.64  932 335  C 932 338.36  929.36 341  926 341  C 922.64 341  920 338.36  920 335  C 920 331.64  922.64 329  926 329  Z " fill-rule="nonzero" fill="#ffffff" stroke="none" fill-opacity="0" />
  <path d="M 926 329.5  C 929.08 329.5  931.5 331.92  931.5 335  C 931.5 338.08  929.08 340.5  926 340.5  C 922.92 340.5  920.5 338.08  920.5 335  C 920.5 331.92  922.92 329.5  926 329.5  Z " stroke-width="1" stroke="#aaaaaa" fill="none" />
  <path d="M 926 338  C 924.32 338  923 336.68  923 335  C 923 333.32  924.32 332  926 332  C 927.68 332  929 333.32  929 335  C 929 336.68  927.68 338  926 338  " fill-rule="nonzero" fill="#aaaaaa" stroke="none" />
</svg>