<?xml version="1.0" encoding="utf-8"?>
<svg version="1.1" xmlns:xlink="http://www.w3.org/1999/xlink" width="12px" height="12px" viewBox="138 894  12 12" xmlns="http://www.w3.org/2000/svg">
  <path d="M 144 894  C 147.36 894  150 896.64  150 900  C 150 903.36  147.36 906  144 906  C 140.64 906  138 903.36  138 900  C 138 896.64  140.64 894  144 894  Z " fill-rule="nonzero" fill="#ffffff" stroke="none" fill-opacity="0" />
  <path d="M 144 894.5  C 147.08 894.5  149.5 896.92  149.5 900  C 149.5 903.08  147.08 905.5  144 905.5  C 140.92 905.5  138.5 903.08  138.5 900  C 138.5 896.92  140.92 894.5  144 894.5  Z " stroke-width="1" stroke="#aaaaaa" fill="none" />
  <path d="M 144 903  C 142.32 903  141 901.68  141 900  C 141 898.32  142.32 897  144 897  C 145.68 897  147 898.32  147 900  C 147 901.68  145.68 903  144 903  " fill-rule="nonzero" fill="#aaaaaa" stroke="none" />
</svg>