<?xml version="1.0" encoding="utf-8"?>
<svg version="1.1" xmlns:xlink="http://www.w3.org/1999/xlink" width="12px" height="12px" viewBox="381 680  12 12" xmlns="http://www.w3.org/2000/svg">
  <path d="M 387 680  C 390.36 680  393 682.64  393 686  C 393 689.36  390.36 692  387 692  C 383.64 692  381 689.36  381 686  C 381 682.64  383.64 680  387 680  Z " fill-rule="nonzero" fill="#ffffff" stroke="none" fill-opacity="0" />
  <path d="M 387 680.5  C 390.08 680.5  392.5 682.92  392.5 686  C 392.5 689.08  390.08 691.5  387 691.5  C 383.92 691.5  381.5 689.08  381.5 686  C 381.5 682.92  383.92 680.5  387 680.5  Z " stroke-width="1" stroke="#aaaaaa" fill="none" />
  <path d="M 387 689  C 385.32 689  384 687.68  384 686  C 384 684.32  385.32 683  387 683  C 388.68 683  390 684.32  390 686  C 390 687.68  388.68 689  387 689  " fill-rule="nonzero" fill="#aaaaaa" stroke="none" />
</svg>