<?xml version="1.0" encoding="utf-8"?>
<svg version="1.1" xmlns:xlink="http://www.w3.org/1999/xlink" width="780px" height="280px" xmlns="http://www.w3.org/2000/svg">
  <g transform="matrix(1 0 0 1 -120 -190 )">
    <path d="M 120 190  L 900 190  L 900 470  L 120 470  L 120 190  " fill-rule="nonzero" fill="#cccccc" stroke="none" />
    <path d="M 140 210  L 880 210  L 880 450  L 140 450  L 140 210  " fill-rule="nonzero" fill="#ffffff" stroke="none" />
    <path d="M 546.6 274  C 534.84 274  525.6 264.76  525.6 253  C 525.6 241.24  534.84 232  546.6 232  C 558.36 232  567.6 241.24  567.6 253  C 567.6 264.76  558.36 274  546.6 274  " fill-rule="nonzero" fill="#cccccc" stroke="none" />
    <path d="M 147 443  L 147 318.7  L 328.5 262.2  L 582.6 394.323076923077  L 727.8 296.1  L 873 394.323076923077  L 873 443  L 147 443  " fill-rule="nonzero" fill="#169bd5" stroke="none" />
  </g>
</svg>