<?xml version="1.0" encoding="utf-8"?>
<svg version="1.1" xmlns:xlink="http://www.w3.org/1999/xlink" width="12px" height="12px" viewBox="258 894  12 12" xmlns="http://www.w3.org/2000/svg">
  <path d="M 264 894  C 267.36 894  270 896.64  270 900  C 270 903.36  267.36 906  264 906  C 260.64 906  258 903.36  258 900  C 258 896.64  260.64 894  264 894  Z " fill-rule="nonzero" fill="#ffffff" stroke="none" fill-opacity="0" />
  <path d="M 264 894.5  C 267.08 894.5  269.5 896.92  269.5 900  C 269.5 903.08  267.08 905.5  264 905.5  C 260.92 905.5  258.5 903.08  258.5 900  C 258.5 896.92  260.92 894.5  264 894.5  Z " stroke-width="1" stroke="#aaaaaa" fill="none" />
  <path d="M 264 903  C 262.32 903  261 901.68  261 900  C 261 898.32  262.32 897  264 897  C 265.68 897  267 898.32  267 900  C 267 901.68  265.68 903  264 903  " fill-rule="nonzero" fill="#aaaaaa" stroke="none" />
</svg>