<?xml version="1.0" encoding="utf-8"?>
<svg version="1.1" xmlns:xlink="http://www.w3.org/1999/xlink" width="12px" height="12px" viewBox="378 894  12 12" xmlns="http://www.w3.org/2000/svg">
  <path d="M 384 894  C 387.36 894  390 896.64  390 900  C 390 903.36  387.36 906  384 906  C 380.64 906  378 903.36  378 900  C 378 896.64  380.64 894  384 894  Z " fill-rule="nonzero" fill="#ffffff" stroke="none" fill-opacity="0" />
  <path d="M 384 894.5  C 387.08 894.5  389.5 896.92  389.5 900  C 389.5 903.08  387.08 905.5  384 905.5  C 380.92 905.5  378.5 903.08  378.5 900  C 378.5 896.92  380.92 894.5  384 894.5  Z " stroke-width="1" stroke="#aaaaaa" fill="none" />
  <path d="M 384 903  C 382.32 903  381 901.68  381 900  C 381 898.32  382.32 897  384 897  C 385.68 897  387 898.32  387 900  C 387 901.68  385.68 903  384 903  " fill-rule="nonzero" fill="#aaaaaa" stroke="none" />
</svg>