<?xml version="1.0" encoding="utf-8"?>
<svg version="1.1" xmlns:xlink="http://www.w3.org/1999/xlink" width="12px" height="12px" viewBox="481 850  12 12" xmlns="http://www.w3.org/2000/svg">
  <path d="M 487 850  C 490.36 850  493 852.64  493 856  C 493 859.36  490.36 862  487 862  C 483.64 862  481 859.36  481 856  C 481 852.64  483.64 850  487 850  Z " fill-rule="nonzero" fill="#ffffff" stroke="none" fill-opacity="0" />
  <path d="M 487 850.5  C 490.08 850.5  492.5 852.92  492.5 856  C 492.5 859.08  490.08 861.5  487 861.5  C 483.92 861.5  481.5 859.08  481.5 856  C 481.5 852.92  483.92 850.5  487 850.5  Z " stroke-width="1" stroke="#aaaaaa" fill="none" />
  <path d="M 487 859  C 485.32 859  484 857.68  484 856  C 484 854.32  485.32 853  487 853  C 488.68 853  490 854.32  490 856  C 490 857.68  488.68 859  487 859  " fill-rule="nonzero" fill="#aaaaaa" stroke="none" />
</svg>