<?xml version="1.0" encoding="utf-8"?>
<svg version="1.1" xmlns:xlink="http://www.w3.org/1999/xlink" width="12px" height="12px" viewBox="381 850  12 12" xmlns="http://www.w3.org/2000/svg">
  <path d="M 387 850  C 390.36 850  393 852.64  393 856  C 393 859.36  390.36 862  387 862  C 383.64 862  381 859.36  381 856  C 381 852.64  383.64 850  387 850  Z " fill-rule="nonzero" fill="#ffffff" stroke="none" fill-opacity="0" />
  <path d="M 387 850.5  C 390.08 850.5  392.5 852.92  392.5 856  C 392.5 859.08  390.08 861.5  387 861.5  C 383.92 861.5  381.5 859.08  381.5 856  C 381.5 852.92  383.92 850.5  387 850.5  Z " stroke-width="1" stroke="#aaaaaa" fill="none" />
  <path d="M 387 859  C 385.32 859  384 857.68  384 856  C 384 854.32  385.32 853  387 853  C 388.68 853  390 854.32  390 856  C 390 857.68  388.68 859  387 859  " fill-rule="nonzero" fill="#aaaaaa" stroke="none" />
</svg>