<?xml version="1.0" encoding="utf-8"?>
<svg version="1.1" xmlns:xlink="http://www.w3.org/1999/xlink" width="12px" height="12px" viewBox="381 810  12 12" xmlns="http://www.w3.org/2000/svg">
  <path d="M 387 810  C 390.36 810  393 812.64  393 816  C 393 819.36  390.36 822  387 822  C 383.64 822  381 819.36  381 816  C 381 812.64  383.64 810  387 810  Z " fill-rule="nonzero" fill="#ffffff" stroke="none" fill-opacity="0" />
  <path d="M 387 810.5  C 390.08 810.5  392.5 812.92  392.5 816  C 392.5 819.08  390.08 821.5  387 821.5  C 383.92 821.5  381.5 819.08  381.5 816  C 381.5 812.92  383.92 810.5  387 810.5  Z " stroke-width="1" stroke="#aaaaaa" fill="none" />
  <path d="M 387 819  C 385.32 819  384 817.68  384 816  C 384 814.32  385.32 813  387 813  C 388.68 813  390 814.32  390 816  C 390 817.68  388.68 819  387 819  " fill-rule="nonzero" fill="#aaaaaa" stroke="none" />
</svg>