<?xml version="1.0" encoding="utf-8"?>
<svg version="1.1" xmlns:xlink="http://www.w3.org/1999/xlink" width="12px" height="12px" viewBox="481 520  12 12" xmlns="http://www.w3.org/2000/svg">
  <path d="M 487 520  C 490.36 520  493 522.64  493 526  C 493 529.36  490.36 532  487 532  C 483.64 532  481 529.36  481 526  C 481 522.64  483.64 520  487 520  Z " fill-rule="nonzero" fill="#ffffff" stroke="none" fill-opacity="0" />
  <path d="M 487 520.5  C 490.08 520.5  492.5 522.92  492.5 526  C 492.5 529.08  490.08 531.5  487 531.5  C 483.92 531.5  481.5 529.08  481.5 526  C 481.5 522.92  483.92 520.5  487 520.5  Z " stroke-width="1" stroke="#aaaaaa" fill="none" />
  <path d="M 487 529  C 485.32 529  484 527.68  484 526  C 484 524.32  485.32 523  487 523  C 488.68 523  490 524.32  490 526  C 490 527.68  488.68 529  487 529  " fill-rule="nonzero" fill="#aaaaaa" stroke="none" />
</svg>