<?xml version="1.0" encoding="utf-8"?>
<svg version="1.1" xmlns:xlink="http://www.w3.org/1999/xlink" width="12px" height="12px" viewBox="29 290  12 12" xmlns="http://www.w3.org/2000/svg">
  <path d="M 35 290  C 38.36 290  41 292.64  41 296  C 41 299.36  38.36 302  35 302  C 31.64 302  29 299.36  29 296  C 29 292.64  31.64 290  35 290  Z " fill-rule="nonzero" fill="#f0f0f0" stroke="none" />
  <path d="M 35 290.5  C 38.08 290.5  40.5 292.92  40.5 296  C 40.5 299.08  38.08 301.5  35 301.5  C 31.92 301.5  29.5 299.08  29.5 296  C 29.5 292.92  31.92 290.5  35 290.5  Z " stroke-width="1" stroke="#aaaaaa" fill="none" />
  <path d="M 35 299  C 33.32 299  32 297.68  32 296  C 32 294.32  33.32 293  35 293  C 36.68 293  38 294.32  38 296  C 38 297.68  36.68 299  35 299  " fill-rule="nonzero" fill="#aaaaaa" stroke="none" />
</svg>