<?xml version="1.0" encoding="utf-8"?>
<svg version="1.1" xmlns:xlink="http://www.w3.org/1999/xlink" width="12px" height="12px" viewBox="29 230  12 12" xmlns="http://www.w3.org/2000/svg">
  <path d="M 35 230  C 38.36 230  41 232.64  41 236  C 41 239.36  38.36 242  35 242  C 31.64 242  29 239.36  29 236  C 29 232.64  31.64 230  35 230  Z " fill-rule="nonzero" fill="#ffffff" stroke="none" fill-opacity="0" />
  <path d="M 35 230.5  C 38.08 230.5  40.5 232.92  40.5 236  C 40.5 239.08  38.08 241.5  35 241.5  C 31.92 241.5  29.5 239.08  29.5 236  C 29.5 232.92  31.92 230.5  35 230.5  Z " stroke-width="1" stroke="#aaaaaa" fill="none" />
  <path d="M 35 239  C 33.32 239  32 237.68  32 236  C 32 234.32  33.32 233  35 233  C 36.68 233  38 234.32  38 236  C 38 237.68  36.68 239  35 239  " fill-rule="nonzero" fill="#aaaaaa" stroke="none" />
</svg>