<?xml version="1.0" encoding="utf-8"?>
<svg version="1.1" xmlns:xlink="http://www.w3.org/1999/xlink" width="12px" height="12px" viewBox="29 259  12 12" xmlns="http://www.w3.org/2000/svg">
  <path d="M 35 259  C 38.36 259  41 261.64  41 265  C 41 268.36  38.36 271  35 271  C 31.64 271  29 268.36  29 265  C 29 261.64  31.64 259  35 259  Z " fill-rule="nonzero" fill="#f0f0f0" stroke="none" />
  <path d="M 35 259.5  C 38.08 259.5  40.5 261.92  40.5 265  C 40.5 268.08  38.08 270.5  35 270.5  C 31.92 270.5  29.5 268.08  29.5 265  C 29.5 261.92  31.92 259.5  35 259.5  Z " stroke-width="1" stroke="#aaaaaa" fill="none" />
  <path d="M 35 268  C 33.32 268  32 266.68  32 265  C 32 263.32  33.32 262  35 262  C 36.68 262  38 263.32  38 265  C 38 266.68  36.68 268  35 268  " fill-rule="nonzero" fill="#aaaaaa" stroke="none" />
</svg>