<?xml version="1.0" encoding="utf-8"?>
<svg version="1.1" xmlns:xlink="http://www.w3.org/1999/xlink" width="14px" height="14px" xmlns="http://www.w3.org/2000/svg">
  <g transform="matrix(1 0 0 1 -380 -8 )">
    <path d="M 387 8  C 390.92 8  394 11.08  394 15  C 394 18.92  390.92 22  387 22  C 383.08 22  380 18.92  380 15  C 380 11.08  383.08 8  387 8  Z " fill-rule="nonzero" fill="#ffffff" stroke="none" fill-opacity="0" />
    <path d="M 387 8.5  C 390.64 8.5  393.5 11.36  393.5 15  C 393.5 18.64  390.64 21.5  387 21.5  C 383.36 21.5  380.5 18.64  380.5 15  C 380.5 11.36  383.36 8.5  387 8.5  Z " stroke-width="1" stroke="#d7d7d7" fill="none" />
  </g>
</svg>