<?xml version="1.0" encoding="utf-8"?>
<svg version="1.1" xmlns:xlink="http://www.w3.org/1999/xlink" width="14px" height="14px" xmlns="http://www.w3.org/2000/svg">
  <g transform="matrix(1 0 0 1 -336 -8 )">
    <path d="M 343 8  C 346.92 8  350 11.08  350 15  C 350 18.92  346.92 22  343 22  C 339.08 22  336 18.92  336 15  C 336 11.08  339.08 8  343 8  Z " fill-rule="nonzero" fill="#ffffff" stroke="none" fill-opacity="0" />
    <path d="M 343 8.5  C 346.64 8.5  349.5 11.36  349.5 15  C 349.5 18.64  346.64 21.5  343 21.5  C 339.36 21.5  336.5 18.64  336.5 15  C 336.5 11.36  339.36 8.5  343 8.5  Z " stroke-width="1" stroke="#d7d7d7" fill="none" />
  </g>
</svg>