<?xml version="1.0" encoding="utf-8"?>
<svg version="1.1" xmlns:xlink="http://www.w3.org/1999/xlink" width="16px" height="16px" xmlns="http://www.w3.org/2000/svg">
  <g transform="matrix(1 0 0 1 -920 -13 )">
    <path d="M 920 13  L 936 13  L 936 29  L 920 29  L 920 13  " fill-rule="nonzero" fill="#cccccc" stroke="none" />
    <path d="M 921 14  L 935 14  L 935 28  L 921 28  L 921 14  " fill-rule="nonzero" fill="#ffffff" stroke="none" />
    <path d="M 929.52 17.8  C 928.848 17.8  928.32 17.272  928.32 16.6  C 928.32 15.928  928.848 15.4  929.52 15.4  C 930.192 15.4  930.72 15.928  930.72 16.6  C 930.72 17.272  930.192 17.8  929.52 17.8  " fill-rule="nonzero" fill="#cccccc" stroke="none" />
    <path d="M 922 28  L 922 20.85  L 925.25 17.6  L 929.8 20.2  L 932.4 19.55  L 935 20.2  L 935 28  L 922 28  " fill-rule="nonzero" fill="#169bd5" stroke="none" />
  </g>
</svg>