<?xml version="1.0" encoding="utf-8"?>
<svg version="1.1" xmlns:xlink="http://www.w3.org/1999/xlink" width="12px" height="12px" viewBox="258 959  12 12" xmlns="http://www.w3.org/2000/svg">
  <path d="M 264 959  C 267.36 959  270 961.64  270 965  C 270 968.36  267.36 971  264 971  C 260.64 971  258 968.36  258 965  C 258 961.64  260.64 959  264 959  Z " fill-rule="nonzero" fill="#ffffff" stroke="none" fill-opacity="0" />
  <path d="M 264 959.5  C 267.08 959.5  269.5 961.92  269.5 965  C 269.5 968.08  267.08 970.5  264 970.5  C 260.92 970.5  258.5 968.08  258.5 965  C 258.5 961.92  260.92 959.5  264 959.5  Z " stroke-width="1" stroke="#aaaaaa" fill="none" />
  <path d="M 264 968  C 262.32 968  261 966.68  261 965  C 261 963.32  262.32 962  264 962  C 265.68 962  267 963.32  267 965  C 267 966.68  265.68 968  264 968  " fill-rule="nonzero" fill="#aaaaaa" stroke="none" />
</svg>