<?xml version="1.0" encoding="utf-8"?>
<svg version="1.1" xmlns:xlink="http://www.w3.org/1999/xlink" width="12px" height="12px" viewBox="378 959  12 12" xmlns="http://www.w3.org/2000/svg">
  <path d="M 384 959  C 387.36 959  390 961.64  390 965  C 390 968.36  387.36 971  384 971  C 380.64 971  378 968.36  378 965  C 378 961.64  380.64 959  384 959  Z " fill-rule="nonzero" fill="#ffffff" stroke="none" fill-opacity="0" />
  <path d="M 384 959.5  C 387.08 959.5  389.5 961.92  389.5 965  C 389.5 968.08  387.08 970.5  384 970.5  C 380.92 970.5  378.5 968.08  378.5 965  C 378.5 961.92  380.92 959.5  384 959.5  Z " stroke-width="1" stroke="#aaaaaa" fill="none" />
  <path d="M 384 968  C 382.32 968  381 966.68  381 965  C 381 963.32  382.32 962  384 962  C 385.68 962  387 963.32  387 965  C 387 966.68  385.68 968  384 968  " fill-rule="nonzero" fill="#aaaaaa" stroke="none" />
</svg>