<?xml version="1.0" encoding="utf-8"?>
<svg version="1.1" xmlns:xlink="http://www.w3.org/1999/xlink" width="12px" height="12px" viewBox="130 1710  12 12" xmlns="http://www.w3.org/2000/svg">
  <path d="M 136 1710  C 139.36 1710  142 1712.64  142 1716  C 142 1719.36  139.36 1722  136 1722  C 132.64 1722  130 1719.36  130 1716  C 130 1712.64  132.64 1710  136 1710  Z " fill-rule="nonzero" fill="#ffffff" stroke="none" fill-opacity="0" />
  <path d="M 136 1710.5  C 139.08 1710.5  141.5 1712.92  141.5 1716  C 141.5 1719.08  139.08 1721.5  136 1721.5  C 132.92 1721.5  130.5 1719.08  130.5 1716  C 130.5 1712.92  132.92 1710.5  136 1710.5  Z " stroke-width="1" stroke="#aaaaaa" fill="none" />
  <path d="M 136 1719  C 134.32 1719  133 1717.68  133 1716  C 133 1714.32  134.32 1713  136 1713  C 137.68 1713  139 1714.32  139 1716  C 139 1717.68  137.68 1719  136 1719  " fill-rule="nonzero" fill="#aaaaaa" stroke="none" />
</svg>