<?xml version="1.0" encoding="utf-8"?>
<svg version="1.1" xmlns:xlink="http://www.w3.org/1999/xlink" width="8px" height="4px" xmlns="http://www.w3.org/2000/svg">
  <g transform="matrix(1 0 0 1 -133 -10 )">
    <path d="M 7.91983967935872 3.27147766323024  C 7.97327989311957 3.31729667812142  8 3.36998854524628  8 3.42955326460481  C 8 3.48911798396334  7.97327989311957 3.5418098510882  7.91983967935872 3.58762886597938  L 7.51903807615231 3.93127147766323  C 7.46559786239145 3.97709049255441  7.40414161656647 4  7.33466933867735 4  C 7.26519706078824 4  7.20374081496326 3.97709049255441  7.1503006012024 3.93127147766323  L 4 1.23024054982818  L 0.849699398797595 3.93127147766323  C 0.79625918503674 3.97709049255441  0.734802939211757 4  0.665330661322645 4  C 0.595858383433534 4  0.534402137608551 3.97709049255441  0.480961923847695 3.93127147766323  L 0.0801603206412826 3.58762886597938  C 0.0267201068804276 3.5418098510882  0 3.48911798396334  0 3.42955326460481  C 0 3.36998854524628  0.0267201068804276 3.31729667812142  0.0801603206412826 3.27147766323024  L 3.81563126252505 0.06872852233677  C 3.86907147628591 0.0229095074455894  3.93052772211089 0  4 0  C 4.06947227788911 0  4.1309285237141 0.0229095074455894  4.18436873747495 0.06872852233677  L 7.91983967935872 3.27147766323024  Z " fill-rule="nonzero" fill="#aaaaaa" stroke="none" transform="matrix(1 0 0 1 133 10 )" />
  </g>
</svg>