<?xml version="1.0" encoding="utf-8"?>
<svg version="1.1" xmlns:xlink="http://www.w3.org/1999/xlink" width="8px" height="4px" xmlns="http://www.w3.org/2000/svg">
  <g transform="matrix(1 0 0 1 -133 -10 )">
    <path d="M 7.91983967935872 0.412371134020618  C 7.97327989311957 0.458190148911797  8 0.510882016036655  8 0.570446735395189  C 8 0.630011454753722  7.97327989311957 0.682703321878579  7.91983967935872 0.72852233676976  L 4.18436873747495 3.93127147766323  C 4.1309285237141 3.97709049255441  4.06947227788911 4  4 4  C 3.93052772211089 4  3.86907147628591 3.97709049255441  3.81563126252505 3.93127147766323  L 0.0801603206412826 0.72852233676976  C 0.0267201068804276 0.682703321878579  0 0.630011454753722  0 0.570446735395189  C 0 0.510882016036655  0.0267201068804276 0.458190148911797  0.0801603206412826 0.412371134020618  L 0.480961923847695 0.06872852233677  C 0.534402137608551 0.0229095074455894  0.595858383433534 0  0.665330661322645 0  C 0.734802939211757 0  0.79625918503674 0.0229095074455894  0.849699398797595 0.06872852233677  L 4 2.76975945017182  L 7.1503006012024 0.06872852233677  C 7.20374081496326 0.0229095074455894  7.26519706078824 0  7.33466933867735 0  C 7.40414161656647 0  7.46559786239145 0.0229095074455894  7.51903807615231 0.06872852233677  L 7.91983967935872 0.412371134020618  Z " fill-rule="nonzero" fill="#aaaaaa" stroke="none" transform="matrix(1 0 0 1 133 10 )" />
  </g>
</svg>