<?xml version="1.0" encoding="utf-8"?>
<svg version="1.1" xmlns:xlink="http://www.w3.org/1999/xlink" width="12px" height="12px" viewBox="258 909  12 12" xmlns="http://www.w3.org/2000/svg">
  <path d="M 264 909  C 267.36 909  270 911.64  270 915  C 270 918.36  267.36 921  264 921  C 260.64 921  258 918.36  258 915  C 258 911.64  260.64 909  264 909  Z " fill-rule="nonzero" fill="#ffffff" stroke="none" fill-opacity="0" />
  <path d="M 264 909.5  C 267.08 909.5  269.5 911.92  269.5 915  C 269.5 918.08  267.08 920.5  264 920.5  C 260.92 920.5  258.5 918.08  258.5 915  C 258.5 911.92  260.92 909.5  264 909.5  Z " stroke-width="1" stroke="#aaaaaa" fill="none" />
  <path d="M 264 918  C 262.32 918  261 916.68  261 915  C 261 913.32  262.32 912  264 912  C 265.68 912  267 913.32  267 915  C 267 916.68  265.68 918  264 918  " fill-rule="nonzero" fill="#aaaaaa" stroke="none" />
</svg>