<?xml version="1.0" encoding="utf-8"?>
<svg version="1.1" xmlns:xlink="http://www.w3.org/1999/xlink" width="12px" height="12px" viewBox="138 909  12 12" xmlns="http://www.w3.org/2000/svg">
  <path d="M 144 909  C 147.36 909  150 911.64  150 915  C 150 918.36  147.36 921  144 921  C 140.64 921  138 918.36  138 915  C 138 911.64  140.64 909  144 909  Z " fill-rule="nonzero" fill="#ffffff" stroke="none" fill-opacity="0" />
  <path d="M 144 909.5  C 147.08 909.5  149.5 911.92  149.5 915  C 149.5 918.08  147.08 920.5  144 920.5  C 140.92 920.5  138.5 918.08  138.5 915  C 138.5 911.92  140.92 909.5  144 909.5  Z " stroke-width="1" stroke="#aaaaaa" fill="none" />
  <path d="M 144 918  C 142.32 918  141 916.68  141 915  C 141 913.32  142.32 912  144 912  C 145.68 912  147 913.32  147 915  C 147 916.68  145.68 918  144 918  " fill-rule="nonzero" fill="#aaaaaa" stroke="none" />
</svg>