<?xml version="1.0" encoding="utf-8"?>
<svg version="1.1" xmlns:xlink="http://www.w3.org/1999/xlink" width="12px" height="12px" viewBox="200 62  12 12" xmlns="http://www.w3.org/2000/svg">
  <path d="M 206 62  C 209.36 62  212 64.64  212 68  C 212 71.36  209.36 74  206 74  C 202.64 74  200 71.36  200 68  C 200 64.64  202.64 62  206 62  Z " fill-rule="nonzero" fill="#ffffff" stroke="none" fill-opacity="0" />
  <path d="M 206 62.5  C 209.08 62.5  211.5 64.92  211.5 68  C 211.5 71.08  209.08 73.5  206 73.5  C 202.92 73.5  200.5 71.08  200.5 68  C 200.5 64.92  202.92 62.5  206 62.5  Z " stroke-width="1" stroke="#aaaaaa" fill="none" />
  <path d="M 206 71  C 204.32 71  203 69.68  203 68  C 203 66.32  204.32 65  206 65  C 207.68 65  209 66.32  209 68  C 209 69.68  207.68 71  206 71  " fill-rule="nonzero" fill="#aaaaaa" stroke="none" />
</svg>