<?xml version="1.0" encoding="utf-8"?>
<svg version="1.1" xmlns:xlink="http://www.w3.org/1999/xlink" width="12px" height="12px" viewBox="581 590  12 12" xmlns="http://www.w3.org/2000/svg">
  <path d="M 587 590  C 590.36 590  593 592.64  593 596  C 593 599.36  590.36 602  587 602  C 583.64 602  581 599.36  581 596  C 581 592.64  583.64 590  587 590  Z " fill-rule="nonzero" fill="#ffffff" stroke="none" fill-opacity="0" />
  <path d="M 587 590.5  C 590.08 590.5  592.5 592.92  592.5 596  C 592.5 599.08  590.08 601.5  587 601.5  C 583.92 601.5  581.5 599.08  581.5 596  C 581.5 592.92  583.92 590.5  587 590.5  Z " stroke-width="1" stroke="#aaaaaa" fill="none" />
  <path d="M 587 599  C 585.32 599  584 597.68  584 596  C 584 594.32  585.32 593  587 593  C 588.68 593  590 594.32  590 596  C 590 597.68  588.68 599  587 599  " fill-rule="nonzero" fill="#aaaaaa" stroke="none" />
</svg>