<?xml version="1.0" encoding="utf-8"?>
<svg version="1.1" xmlns:xlink="http://www.w3.org/1999/xlink" width="12px" height="12px" viewBox="481 590  12 12" xmlns="http://www.w3.org/2000/svg">
  <path d="M 487 590  C 490.36 590  493 592.64  493 596  C 493 599.36  490.36 602  487 602  C 483.64 602  481 599.36  481 596  C 481 592.64  483.64 590  487 590  Z " fill-rule="nonzero" fill="#ffffff" stroke="none" fill-opacity="0" />
  <path d="M 487 590.5  C 490.08 590.5  492.5 592.92  492.5 596  C 492.5 599.08  490.08 601.5  487 601.5  C 483.92 601.5  481.5 599.08  481.5 596  C 481.5 592.92  483.92 590.5  487 590.5  Z " stroke-width="1" stroke="#aaaaaa" fill="none" />
  <path d="M 487 599  C 485.32 599  484 597.68  484 596  C 484 594.32  485.32 593  487 593  C 488.68 593  490 594.32  490 596  C 490 597.68  488.68 599  487 599  " fill-rule="nonzero" fill="#aaaaaa" stroke="none" />
</svg>