<?xml version="1.0" encoding="utf-8"?>
<svg version="1.1" xmlns:xlink="http://www.w3.org/1999/xlink" width="12px" height="12px" viewBox="381 590  12 12" xmlns="http://www.w3.org/2000/svg">
  <path d="M 387 590  C 390.36 590  393 592.64  393 596  C 393 599.36  390.36 602  387 602  C 383.64 602  381 599.36  381 596  C 381 592.64  383.64 590  387 590  Z " fill-rule="nonzero" fill="#ffffff" stroke="none" fill-opacity="0" />
  <path d="M 387 590.5  C 390.08 590.5  392.5 592.92  392.5 596  C 392.5 599.08  390.08 601.5  387 601.5  C 383.92 601.5  381.5 599.08  381.5 596  C 381.5 592.92  383.92 590.5  387 590.5  Z " stroke-width="1" stroke="#aaaaaa" fill="none" />
  <path d="M 387 599  C 385.32 599  384 597.68  384 596  C 384 594.32  385.32 593  387 593  C 388.68 593  390 594.32  390 596  C 390 597.68  388.68 599  387 599  " fill-rule="nonzero" fill="#aaaaaa" stroke="none" />
</svg>