<?xml version="1.0" encoding="utf-8"?>
<svg version="1.1" xmlns:xlink="http://www.w3.org/1999/xlink" width="12px" height="12px" viewBox="160 510  12 12" xmlns="http://www.w3.org/2000/svg">
  <path d="M 166 510  C 169.36 510  172 512.64  172 516  C 172 519.36  169.36 522  166 522  C 162.64 522  160 519.36  160 516  C 160 512.64  162.64 510  166 510  Z " fill-rule="nonzero" fill="#ffffff" stroke="none" fill-opacity="0" />
  <path d="M 166 510.5  C 169.08 510.5  171.5 512.92  171.5 516  C 171.5 519.08  169.08 521.5  166 521.5  C 162.92 521.5  160.5 519.08  160.5 516  C 160.5 512.92  162.92 510.5  166 510.5  Z " stroke-width="1" stroke="#aaaaaa" fill="none" />
  <path d="M 166 519  C 164.32 519  163 517.68  163 516  C 163 514.32  164.32 513  166 513  C 167.68 513  169 514.32  169 516  C 169 517.68  167.68 519  166 519  " fill-rule="nonzero" fill="#aaaaaa" stroke="none" />
</svg>