<?xml version="1.0" encoding="utf-8"?>
<svg version="1.1" xmlns:xlink="http://www.w3.org/1999/xlink" width="12px" height="12px" viewBox="120 527  12 12" xmlns="http://www.w3.org/2000/svg">
  <path d="M 126 527  C 129.36 527  132 529.64  132 533  C 132 536.36  129.36 539  126 539  C 122.64 539  120 536.36  120 533  C 120 529.64  122.64 527  126 527  Z " fill-rule="nonzero" fill="#ffffff" stroke="none" fill-opacity="0" />
  <path d="M 126 527.5  C 129.08 527.5  131.5 529.92  131.5 533  C 131.5 536.08  129.08 538.5  126 538.5  C 122.92 538.5  120.5 536.08  120.5 533  C 120.5 529.92  122.92 527.5  126 527.5  Z " stroke-width="1" stroke="#aaaaaa" fill="none" />
  <path d="M 126 536  C 124.32 536  123 534.68  123 533  C 123 531.32  124.32 530  126 530  C 127.68 530  129 531.32  129 533  C 129 534.68  127.68 536  126 536  " fill-rule="nonzero" fill="#aaaaaa" stroke="none" />
</svg>