<?xml version="1.0" encoding="utf-8"?>
<svg version="1.1" xmlns:xlink="http://www.w3.org/1999/xlink" width="12px" height="12px" viewBox="180 527  12 12" xmlns="http://www.w3.org/2000/svg">
  <path d="M 186 527  C 189.36 527  192 529.64  192 533  C 192 536.36  189.36 539  186 539  C 182.64 539  180 536.36  180 533  C 180 529.64  182.64 527  186 527  Z " fill-rule="nonzero" fill="#ffffff" stroke="none" fill-opacity="0" />
  <path d="M 186 527.5  C 189.08 527.5  191.5 529.92  191.5 533  C 191.5 536.08  189.08 538.5  186 538.5  C 182.92 538.5  180.5 536.08  180.5 533  C 180.5 529.92  182.92 527.5  186 527.5  Z " stroke-width="1" stroke="#aaaaaa" fill="none" />
  <path d="M 186 536  C 184.32 536  183 534.68  183 533  C 183 531.32  184.32 530  186 530  C 187.68 530  189 531.32  189 533  C 189 534.68  187.68 536  186 536  " fill-rule="nonzero" fill="#aaaaaa" stroke="none" />
</svg>