<?xml version="1.0" encoding="utf-8"?>
<svg version="1.1" xmlns:xlink="http://www.w3.org/1999/xlink" width="16px" height="16px" xmlns="http://www.w3.org/2000/svg">
  <g transform="matrix(1 0 0 1 -870 -13 )">
    <path d="M 870 13  L 886 13  L 886 29  L 870 29  L 870 13  " fill-rule="nonzero" fill="#cccccc" stroke="none" />
    <path d="M 871 14  L 885 14  L 885 28  L 871 28  L 871 14  " fill-rule="nonzero" fill="#ffffff" stroke="none" />
    <path d="M 879.52 17.8  C 878.848 17.8  878.32 17.272  878.32 16.6  C 878.32 15.928  878.848 15.4  879.52 15.4  C 880.192 15.4  880.72 15.928  880.72 16.6  C 880.72 17.272  880.192 17.8  879.52 17.8  " fill-rule="nonzero" fill="#cccccc" stroke="none" />
    <path d="M 872 28  L 872 20.85  L 875.25 17.6  L 879.8 20.2  L 882.4 19.55  L 885 20.2  L 885 28  L 872 28  " fill-rule="nonzero" fill="#169bd5" stroke="none" />
  </g>
</svg>