<?xml version="1.0" encoding="utf-8"?>
<svg version="1.1" xmlns:xlink="http://www.w3.org/1999/xlink" width="14px" height="14px" xmlns="http://www.w3.org/2000/svg">
  <g transform="matrix(1 0 0 1 -576 -8 )">
    <path d="M 583 8  C 586.92 8  590 11.08  590 15  C 590 18.92  586.92 22  583 22  C 579.08 22  576 18.92  576 15  C 576 11.08  579.08 8  583 8  Z " fill-rule="nonzero" fill="#ffffff" stroke="none" fill-opacity="0" />
    <path d="M 583 8.5  C 586.64 8.5  589.5 11.36  589.5 15  C 589.5 18.64  586.64 21.5  583 21.5  C 579.36 21.5  576.5 18.64  576.5 15  C 576.5 11.36  579.36 8.5  583 8.5  Z " stroke-width="1" stroke="#d7d7d7" fill="none" />
  </g>
</svg>