<?xml version="1.0" encoding="utf-8"?>
<svg version="1.1" xmlns:xlink="http://www.w3.org/1999/xlink" width="12px" height="12px" viewBox="210 72  12 12" xmlns="http://www.w3.org/2000/svg">
  <path d="M 216 72  C 219.36 72  222 74.64  222 78  C 222 81.36  219.36 84  216 84  C 212.64 84  210 81.36  210 78  C 210 74.64  212.64 72  216 72  Z " fill-rule="nonzero" fill="#ffffff" stroke="none" fill-opacity="0" />
  <path d="M 216 72.5  C 219.08 72.5  221.5 74.92  221.5 78  C 221.5 81.08  219.08 83.5  216 83.5  C 212.92 83.5  210.5 81.08  210.5 78  C 210.5 74.92  212.92 72.5  216 72.5  Z " stroke-width="1" stroke="#aaaaaa" fill="none" />
  <path d="M 216 81  C 214.32 81  213 79.68  213 78  C 213 76.32  214.32 75  216 75  C 217.68 75  219 76.32  219 78  C 219 79.68  217.68 81  216 81  " fill-rule="nonzero" fill="#aaaaaa" stroke="none" />
</svg>