<?xml version="1.0" encoding="utf-8"?>
<svg version="1.1" xmlns:xlink="http://www.w3.org/1999/xlink" width="12px" height="12px" viewBox="110 72  12 12" xmlns="http://www.w3.org/2000/svg">
  <path d="M 116 72  C 119.36 72  122 74.64  122 78  C 122 81.36  119.36 84  116 84  C 112.64 84  110 81.36  110 78  C 110 74.64  112.64 72  116 72  Z " fill-rule="nonzero" fill="#ffffff" stroke="none" fill-opacity="0" />
  <path d="M 116 72.5  C 119.08 72.5  121.5 74.92  121.5 78  C 121.5 81.08  119.08 83.5  116 83.5  C 112.92 83.5  110.5 81.08  110.5 78  C 110.5 74.92  112.92 72.5  116 72.5  Z " stroke-width="1" stroke="#aaaaaa" fill="none" />
  <path d="M 116 81  C 114.32 81  113 79.68  113 78  C 113 76.32  114.32 75  116 75  C 117.68 75  119 76.32  119 78  C 119 79.68  117.68 81  116 81  " fill-rule="nonzero" fill="#aaaaaa" stroke="none" />
</svg>