<?xml version="1.0" encoding="utf-8"?>
<svg version="1.1" xmlns:xlink="http://www.w3.org/1999/xlink" width="12px" height="12px" viewBox="450 1279  12 12" xmlns="http://www.w3.org/2000/svg">
  <path d="M 456 1279  C 459.36 1279  462 1281.64  462 1285  C 462 1288.36  459.36 1291  456 1291  C 452.64 1291  450 1288.36  450 1285  C 450 1281.64  452.64 1279  456 1279  Z " fill-rule="nonzero" fill="#ffffff" stroke="none" fill-opacity="0" />
  <path d="M 456 1279.5  C 459.08 1279.5  461.5 1281.92  461.5 1285  C 461.5 1288.08  459.08 1290.5  456 1290.5  C 452.92 1290.5  450.5 1288.08  450.5 1285  C 450.5 1281.92  452.92 1279.5  456 1279.5  Z " stroke-width="1" stroke="#aaaaaa" fill="none" />
  <path d="M 456 1288  C 454.32 1288  453 1286.68  453 1285  C 453 1283.32  454.32 1282  456 1282  C 457.68 1282  459 1283.32  459 1285  C 459 1286.68  457.68 1288  456 1288  " fill-rule="nonzero" fill="#aaaaaa" stroke="none" />
</svg>