<?xml version="1.0" encoding="utf-8"?>
<svg version="1.1" xmlns:xlink="http://www.w3.org/1999/xlink" width="12px" height="12px" viewBox="330 1279  12 12" xmlns="http://www.w3.org/2000/svg">
  <path d="M 336 1279  C 339.36 1279  342 1281.64  342 1285  C 342 1288.36  339.36 1291  336 1291  C 332.64 1291  330 1288.36  330 1285  C 330 1281.64  332.64 1279  336 1279  Z " fill-rule="nonzero" fill="#ffffff" stroke="none" fill-opacity="0" />
  <path d="M 336 1279.5  C 339.08 1279.5  341.5 1281.92  341.5 1285  C 341.5 1288.08  339.08 1290.5  336 1290.5  C 332.92 1290.5  330.5 1288.08  330.5 1285  C 330.5 1281.92  332.92 1279.5  336 1279.5  Z " stroke-width="1" stroke="#aaaaaa" fill="none" />
  <path d="M 336 1288  C 334.32 1288  333 1286.68  333 1285  C 333 1283.32  334.32 1282  336 1282  C 337.68 1282  339 1283.32  339 1285  C 339 1286.68  337.68 1288  336 1288  " fill-rule="nonzero" fill="#aaaaaa" stroke="none" />
</svg>