<?xml version="1.0" encoding="utf-8"?>
<svg version="1.1" xmlns:xlink="http://www.w3.org/1999/xlink" width="12px" height="12px" viewBox="258 1638  12 12" xmlns="http://www.w3.org/2000/svg">
  <path d="M 264 1638  C 267.36 1638  270 1640.64  270 1644  C 270 1647.36  267.36 1650  264 1650  C 260.64 1650  258 1647.36  258 1644  C 258 1640.64  260.64 1638  264 1638  Z " fill-rule="nonzero" fill="#ffffff" stroke="none" fill-opacity="0" />
  <path d="M 264 1638.5  C 267.08 1638.5  269.5 1640.92  269.5 1644  C 269.5 1647.08  267.08 1649.5  264 1649.5  C 260.92 1649.5  258.5 1647.08  258.5 1644  C 258.5 1640.92  260.92 1638.5  264 1638.5  Z " stroke-width="1" stroke="#aaaaaa" fill="none" />
  <path d="M 264 1647  C 262.32 1647  261 1645.68  261 1644  C 261 1642.32  262.32 1641  264 1641  C 265.68 1641  267 1642.32  267 1644  C 267 1645.68  265.68 1647  264 1647  " fill-rule="nonzero" fill="#aaaaaa" stroke="none" />
</svg>