<?xml version="1.0" encoding="utf-8"?>
<svg version="1.1" xmlns:xlink="http://www.w3.org/1999/xlink" width="12px" height="12px" viewBox="378 1638  12 12" xmlns="http://www.w3.org/2000/svg">
  <path d="M 384 1638  C 387.36 1638  390 1640.64  390 1644  C 390 1647.36  387.36 1650  384 1650  C 380.64 1650  378 1647.36  378 1644  C 378 1640.64  380.64 1638  384 1638  Z " fill-rule="nonzero" fill="#ffffff" stroke="none" fill-opacity="0" />
  <path d="M 384 1638.5  C 387.08 1638.5  389.5 1640.92  389.5 1644  C 389.5 1647.08  387.08 1649.5  384 1649.5  C 380.92 1649.5  378.5 1647.08  378.5 1644  C 378.5 1640.92  380.92 1638.5  384 1638.5  Z " stroke-width="1" stroke="#aaaaaa" fill="none" />
  <path d="M 384 1647  C 382.32 1647  381 1645.68  381 1644  C 381 1642.32  382.32 1641  384 1641  C 385.68 1641  387 1642.32  387 1644  C 387 1645.68  385.68 1647  384 1647  " fill-rule="nonzero" fill="#aaaaaa" stroke="none" />
</svg>