<?xml version="1.0" encoding="utf-8"?>
<svg version="1.1" xmlns:xlink="http://www.w3.org/1999/xlink" width="12px" height="12px" viewBox="570 1279  12 12" xmlns="http://www.w3.org/2000/svg">
  <path d="M 576 1279  C 579.36 1279  582 1281.64  582 1285  C 582 1288.36  579.36 1291  576 1291  C 572.64 1291  570 1288.36  570 1285  C 570 1281.64  572.64 1279  576 1279  Z " fill-rule="nonzero" fill="#ffffff" stroke="none" fill-opacity="0" />
  <path d="M 576 1279.5  C 579.08 1279.5  581.5 1281.92  581.5 1285  C 581.5 1288.08  579.08 1290.5  576 1290.5  C 572.92 1290.5  570.5 1288.08  570.5 1285  C 570.5 1281.92  572.92 1279.5  576 1279.5  Z " stroke-width="1" stroke="#aaaaaa" fill="none" />
  <path d="M 576 1288  C 574.32 1288  573 1286.68  573 1285  C 573 1283.32  574.32 1282  576 1282  C 577.68 1282  579 1283.32  579 1285  C 579 1286.68  577.68 1288  576 1288  " fill-rule="nonzero" fill="#aaaaaa" stroke="none" />
</svg>